<?xml version="1.0" standalone="no"?>
<!DOCTYPE svg PUBLIC "-//W3C//DTD SVG 20010904//EN"
 "http://www.w3.org/TR/2001/REC-SVG-20010904/DTD/svg10.dtd">
<svg version="1.0" xmlns="http://www.w3.org/2000/svg"
 width="1310.000000pt" height="1310.000000pt" viewBox="0 0 1310.000000 1310.000000"
 preserveAspectRatio="xMidYMid meet">
<metadata>
Created by potrace 1.14, written by Peter Selinger 2001-2017
</metadata>
<g transform="translate(0.000000,1310.000000) scale(0.100000,-0.100000)"
fill="#000000" stroke="none">
<path d="M1495 13076 c-76 -24 -149 -69 -202 -123 -100 -102 -238 -430 -292
-691 -85 -411 -58 -893 74 -1349 13 -47 22 -91 18 -97 -4 -6 -44 -51 -90 -101
-107 -116 -234 -281 -315 -407 -35 -55 -99 -145 -143 -201 -190 -241 -198
-255 -286 -540 -259 -844 -264 -1676 -15 -2543 281 -977 876 -1962 1783 -2951
l85 -92 -497 -512 c-273 -282 -513 -524 -533 -539 -50 -36 -500 -500 -534
-551 -37 -56 -68 -140 -80 -221 -8 -53 -7 -83 6 -145 39 -193 163 -335 345
-395 64 -21 86 -22 626 -27 l560 -6 6 -585 c4 -438 8 -595 18 -625 28 -85 84
-175 145 -233 158 -147 373 -180 566 -86 86 42 59 16 1166 1134 367 371 671
676 675 678 3 1 68 -41 145 -94 192 -133 502 -338 731 -482 426 -268 1015
-608 1082 -623 31 -7 44 0 201 109 92 64 279 187 416 272 298 186 888 579
1179 784 116 82 351 255 524 385 172 130 322 242 332 250 20 14 -48 65 874
-647 l380 -294 12 -86 c63 -437 372 -796 790 -917 383 -111 811 13 1131 328
206 203 304 429 303 702 0 234 -76 458 -234 689 -101 148 -178 220 -405 382
-314 224 -689 499 -1085 797 l-357 269 167 172 c1376 1408 2120 2755 2258
4091 30 284 21 664 -21 930 -8 50 -23 161 -34 247 -11 86 -27 190 -35 230 -77
373 -241 716 -502 1050 l-45 56 316 761 c174 419 323 787 331 818 70 270 -98
556 -374 637 -71 21 -211 21 -282 0 -30 -9 -505 -218 -1057 -466 l-1003 -450
-142 26 c-217 39 -334 49 -557 49 -286 0 -470 -23 -745 -93 -364 -92 -743
-270 -1075 -504 -424 -298 -839 -733 -1149 -1204 -104 -159 -128 -161 -236
-25 -517 652 -1119 1169 -1680 1443 -429 209 -819 302 -1270 301 -479 -1 -822
-44 -1099 -141 -33 -11 -63 -17 -67 -13 -17 19 -120 299 -148 403 -46 173 -61
292 -61 495 0 198 -10 261 -58 349 -55 102 -170 191 -286 222 -63 17 -197 17
-251 0z m159 -961 c47 -259 139 -522 296 -840 488 -994 1482 -2154 3020 -3526
1031 -919 2506 -2168 3593 -3043 81 -65 147 -121 147 -123 0 -7 -620 -637
-630 -641 -21 -8 -776 563 -1325 1002 -1379 1103 -2581 2222 -3450 3211 -976
1111 -1581 2096 -1800 2930 -104 395 -122 746 -54 1073 26 126 88 311 136 403
l38 74 6 -210 c3 -133 12 -247 23 -310z m10916 105 c11 -11 20 -30 20 -43 0
-27 -1009 -2460 -1047 -2527 -56 -95 -159 -183 -262 -224 -91 -35 -133 -37
-604 -25 l-458 13 -1499 -1499 c-963 -963 -1503 -1496 -1511 -1492 -20 8 -393
327 -398 339 -2 6 663 677 1478 1492 l1481 1481 0 562 c0 552 0 563 22 620 33
89 108 157 238 217 945 430 2462 1104 2488 1105 20 1 40 -7 52 -19z m-6731
-7123 l34 -28 -438 -439 -438 -439 6 -188 c17 -489 29 -1043 24 -1056 -7 -20
-436 -396 -462 -407 -25 -9 -73 7 -85 30 -7 13 -70 1260 -70 1383 0 10 -11 29
-25 42 l-24 25 -702 0 -703 0 -23 22 c-31 29 -29 69 4 110 93 112 322 380 357
416 l40 42 655 0 655 0 407 406 407 406 174 -148 c95 -82 189 -162 207 -177z
m4307 -112 c110 -102 199 -189 199 -194 0 -5 -497 -498 -1105 -1094 l-1105
-1085 -50 45 c-105 97 -315 307 -313 314 3 7 2168 2199 2173 2199 1 0 92 -83
201 -185z m-3 -1523 c619 -475 1090 -825 1542 -1147 138 -98 267 -194 288
-214 54 -50 161 -214 196 -298 75 -183 68 -369 -19 -507 -126 -198 -382 -346
-605 -349 -146 -2 -264 37 -382 127 -188 143 -291 403 -239 604 l13 53 -831
641 c-457 352 -840 649 -851 659 -20 19 -17 22 295 329 173 170 316 309 318
309 2 1 126 -93 275 -207z m-6170 -14 c4 -62 7 -433 7 -823 l0 -710 -260 -260
-260 -260 0 821 0 821 -797 8 c-439 4 -800 9 -802 11 -2 2 106 116 240 254
l243 250 811 0 812 0 6 -112z m-995 -900 c9 -9 12 -206 12 -823 l0 -811 -228
-227 c-125 -125 -233 -227 -240 -227 -7 0 -21 9 -32 20 -20 20 -20 33 -20 779
0 641 -2 760 -14 770 -10 9 -183 13 -643 17 -784 6 -870 9 -884 35 -5 11 -6
26 -2 34 5 7 102 111 216 229 l209 216 807 0 c614 0 810 -3 819 -12z"/>
</g>
</svg>
