<?xml version="1.0" encoding="UTF-8"?>
<svg id="logo" xmlns="http://www.w3.org/2000/svg" viewBox="0 0 311.75 314.08">
  <path id="heart" d="M310.05,97.34c-.01-.06-.02-.11-.02-.17-.51-6.82-2.04-13.21-4.65-19.08-10.7-24.04-44.64-51.46-82.71-47.88-37.16,3.5-59.41,34.75-65.84,45.08-.03,.05-.06,.09-.1,.14,0,.01-.02,.02-.03,.04-.72,.94-2.13,.93-2.86,0-27.77-35.44-54.4-45.32-77.16-43.38-.04,0-.08,0-.12,0-5.19-.05-10.34,.47-15.37,1.6-22.04,4.95-38.99,20.86-48.01,36.08-.05,.08-.1,.16-.16,.23-3.18,3.76-5.11,6.47-5.61,7.18-.09,.12-.15,.25-.21,.39-46.61,120.6,148.09,220.69,148.09,220.69,.15-.09,.29-.17,.43-.26,.17,.13,.35,.26,.52,.39,2.24-1.57,4.46-3.15,6.65-4.73,.03-.02,.07-.05,.1-.07,145.55-89.37,153.7-162.55,147.04-196.22Z" style="fill: #633c90;"/>
  <g id="weapon">
    <g id="arrow">
      <g id="arrow2">
        <polygon points="76.14 246.76 30.15 246.31 52.43 223.32 99.64 223.32 99.64 270.48 76.14 293.98 76.14 246.76" style="fill: #fff;"/>
        <path d="M94.14,228.82v39.38l-12.5,12.5v-39.38l-38.62-.38,11.74-12.12h39.38m11-11H50.1l-3.24,3.35-11.74,12.12-17.83,18.4,25.62,.25,27.73,.27v55.05l18.78-18.78,12.5-12.5,3.22-3.22v-54.94h0Z" style="fill: #1d1d1b;"/>
      </g>
      <g id="arrow2-2" data-name="arrow2">
        <polygon points="101.7 220.82 55.71 220.37 77.99 197.38 125.2 197.38 125.2 244.54 101.7 268.04 101.7 220.82" style="fill: #fff;"/>
        <path d="M119.7,202.88v39.38l-12.5,12.5v-39.38l-38.62-.38,11.74-12.12h39.38m11-11h-55.04l-3.24,3.35-11.74,12.12-17.83,18.4,25.62,.25,27.73,.27v55.05l18.78-18.78,12.5-12.5,3.22-3.22v-54.94h0Z" style="fill: #1d1d1b;"/>
      </g>
      <g id="arrow1">
        <path d="M107.57,258.87c-3.89,0-7.07-3.04-7.24-6.92l-1.28-28.72h-28.99c-2.81,0-5.39-1.65-6.57-4.21-1.18-2.55-.76-5.59,1.07-7.73l9.15-10.73c1.38-1.61,3.38-2.54,5.5-2.54h28.66l119.57-119.57v-23.24c0-5.44,3.21-10.39,8.16-12.61l60.42-27.11c.95-.42,1.95-.64,2.97-.64,2.42,0,4.67,1.21,6.02,3.23,1.34,2.01,1.59,4.55,.66,6.79l-24.24,58.34c-2.81,6.77-9.36,11.14-16.69,11.14,0,0-.35,0-.52,0l-18.21-.52-121.95,121.95,.75,26.89c.06,2.16-.84,4.22-2.47,5.65l-10.03,8.78c-1.32,1.16-3.01,1.79-4.76,1.79Z" style="fill: #fff;"/>
        <path d="M299.02,20.34c1.16,0,2.1,1.2,1.6,2.41l-24.24,58.34c-1.95,4.7-6.54,7.75-11.61,7.75-.12,0-.24,0-.36,0l-19.84-.57s-.03,0-.05,0c-.46,0-.9,.18-1.23,.51l-124.24,124.24c-.34,.34-.52,.8-.51,1.28l.79,28.51c.01,.52-.2,1.01-.59,1.36l-10.03,8.78c-.34,.3-.74,.43-1.13,.43-.87,0-1.7-.66-1.74-1.66l-1.44-32.32c-.04-.93-.81-1.66-1.74-1.66h-32.59c-1.48,0-2.28-1.74-1.32-2.86l9.15-10.73c.33-.39,.81-.61,1.32-.61h30.22c.46,0,.9-.18,1.23-.51l121.78-121.78c.33-.33,.51-.77,.51-1.23v-24.8c0-3.28,1.92-6.25,4.92-7.59l60.42-27.11c.24-.11,.48-.16,.72-.16m0-11c-1.81,0-3.56,.38-5.22,1.12l-60.42,27.11c-6.93,3.11-11.41,10.03-11.41,17.63v20.96l-116.35,116.35h-26.39c-3.73,0-7.26,1.63-9.69,4.47l-9.15,10.73c-3.21,3.77-3.95,9.11-1.88,13.6,2.07,4.5,6.61,7.4,11.57,7.4h23.73l1.04,23.47c.3,6.83,5.9,12.17,12.73,12.17,3.08,0,6.05-1.12,8.38-3.15l10.03-8.78c2.87-2.51,4.45-6.13,4.34-9.94l-.68-24.52,118.6-118.6,15.84,.45c.23,0,.45,0,.68,0,9.56,0,18.1-5.7,21.77-14.53l24.24-58.34c1.64-3.94,1.2-8.41-1.16-11.95-2.37-3.56-6.33-5.68-10.59-5.68h0Z" style="fill: #1d1d1b;"/>
      </g>
      <g id="arrow3">
        <path d="M59.01,308.58c-3.63,0-6.58-2.95-6.58-6.57v-31.35l-30.69-.3c-2.63-.02-4.98-1.61-6-4.04-1.01-2.43-.49-5.22,1.34-7.11l9.69-10c1.23-1.27,2.95-2,4.72-2h37.86c3.62,0,6.57,2.95,6.57,6.57v37.87c0,1.75-.68,3.4-1.92,4.64l-10.36,10.36c-1.24,1.24-2.89,1.93-4.64,1.93Z" style="fill: #fff;"/>
        <path d="M69.35,252.72c.59,0,1.07,.48,1.07,1.07v37.87c0,.28-.11,.56-.31,.76l-10.36,10.36c-.22,.22-.49,.32-.75,.32-.55,0-1.08-.43-1.08-1.07v-35.74c0-.59-.47-1.06-1.06-1.07l-35.07-.34c-.94,0-1.41-1.14-.76-1.82l9.69-10c.2-.21,.48-.33,.77-.33h37.86m0-11H31.49c-3.25,0-6.41,1.34-8.67,3.67l-9.69,10c-3.36,3.47-4.33,8.59-2.47,13.05,1.86,4.46,6.19,7.37,11.02,7.42l25.24,.25v25.91c0,6.66,5.42,12.07,12.08,12.07,3.22,0,6.25-1.26,8.53-3.54l10.36-10.36c2.28-2.28,3.54-5.31,3.54-8.54v-37.87c0-6.66-5.41-12.07-12.07-12.07h0Z" style="fill: #1d1d1b;"/>
      </g>
    </g>
    <g id="sword">
      <g id="sword_m">
        <path d="M275.33,297.04c-6.48,0-12.69-3.29-16.6-8.79-2.88-4.05-4.18-8.8-3.75-13.31l-64.38-49.7c-2.56-1.82-50.45-35.93-93.2-78.16C37.2,87.64,15.38,41.02,32.53,8.52c.98-1.86,2.9-3.02,5.01-3.02,2.6,0,4.85,1.76,5.48,4.27,.3,1.19,.24,2.27,.17,3.64-1.67,32.67,42.05,78.57,79.01,111.33,97.21,86.14,165.68,133.47,166.36,133.94l.39,.27,.34,.33c.91,.89,8.85,8.97,8.08,18.96-.29,3.83-2.04,9.4-8.72,14.2-4.25,3.05-8.74,4.6-13.34,4.6Z" style="fill: #fff;"/>
        <path d="M37.54,11c.07,0,.13,.04,.15,.11,.98,3.89-11.3,36.06,80.87,117.74,98.64,87.41,166.89,134.35,166.89,134.35,0,0,14.59,14.29,0,24.76-3.5,2.52-6.96,3.57-10.13,3.57-9.99,0-17.17-10.47-14.29-18.74,.02-.06,0-.13-.05-.17l-67.11-51.81S-.93,83.68,37.4,11.09c.03-.06,.09-.09,.14-.09m0-11h-.01c-4.14,0-7.92,2.28-9.86,5.95-18.43,34.9,3.73,83.7,65.86,145.05,43.07,42.53,89.85,75.87,93.8,78.67l62.08,47.93c.19,4.8,1.84,9.64,4.82,13.84,4.94,6.95,12.83,11.1,21.09,11.1,5.69,0,11.41-1.95,16.54-5.63,8.4-6.03,10.62-13.25,11-18.24,.95-12.47-8.62-22.24-9.72-23.31l-.68-.67-.78-.54c-.68-.47-68.93-47.65-165.83-133.52-34.23-30.34-57.55-56.95-69.3-79.09-8.47-15.96-8.04-24.29-7.86-27.84,.08-1.53,.17-3.27-.33-5.26-1.25-4.97-5.7-8.44-10.82-8.44h0Z" style="fill: #1d1d1b;"/>
      </g>
      <g id="sword_d">
        <polygon points="177.05 243.12 237.08 182.39 255 199.12 193.8 259.25 177.05 243.12" style="fill: #fff;"/>
        <path d="M237.23,190.06l9.82,9.16-53.29,52.36-8.88-8.56,52.35-52.96m-.31-15.33l-7.51,7.6-52.35,52.96-7.83,7.93,8.03,7.73,8.88,8.56,7.71,7.42,7.63-7.5,53.29-52.36,8.19-8.05-8.4-7.84-9.82-9.16-7.81-7.29h0Z" style="fill: #1d1d1b;"/>
      </g>
    </g>
  </g>
</svg>