<?xml version="1.0" standalone="no"?>
<!DOCTYPE svg PUBLIC "-//W3C//DTD SVG 20010904//EN"
 "http://www.w3.org/TR/2001/REC-SVG-20010904/DTD/svg10.dtd">
<svg version="1.0" xmlns="http://www.w3.org/2000/svg"
 width="180.000000pt" height="180.000000pt" viewBox="0 0 180.000000 180.000000"
 preserveAspectRatio="xMidYMid meet">
<metadata>
Created by potrace 1.14, written by Peter Selinger 2001-2017
</metadata>
<g transform="translate(0.000000,180.000000) scale(0.100000,-0.100000)"
fill="#000000" stroke="none">
<path d="M0 900 l0 -900 900 0 900 0 0 900 0 900 -900 0 -900 0 0 -900z m419
547 c54 -107 115 -170 413 -434 l290 -256 -46 -45 -45 -46 -23 20 c-13 11
-114 100 -224 197 -301 264 -376 354 -405 486 -9 43 -6 141 5 141 2 0 17 -28
35 -63z m1090 41 c0 -7 -24 -67 -53 -133 l-52 -120 -63 -3 -63 -3 -136 -140
c-74 -76 -141 -139 -147 -139 -7 0 -18 7 -26 16 -11 13 7 35 129 157 l141 142
3 63 3 64 125 53 c140 60 140 60 139 43z m-712 -746 c-23 -24 -27 -36 -27 -88
0 -52 -4 -64 -25 -84 l-25 -23 0 76 0 77 -82 0 -82 0 29 30 c26 27 35 30 90
30 53 0 65 4 85 25 l24 25 20 -20 20 -20 -27 -28z m452 21 c8 -15 -8 -36 -97
-125 -101 -102 -107 -107 -124 -91 -18 16 -14 22 89 125 59 59 111 108 115
108 4 0 12 -8 17 -17z m-579 -186 c0 -76 -2 -86 -25 -107 l-25 -23 0 83 0 83
-82 -8 -83 -7 29 31 c28 29 34 31 108 31 l78 0 0 -83z m667 -29 c104 -103 114
-130 67 -167 -15 -12 -33 -21 -41 -21 -22 0 -63 47 -63 72 -1 17 -20 38 -71
77 l-71 53 38 39 c21 22 40 39 43 39 3 0 47 -42 98 -92z m-767 -71 c0 -76 -2
-86 -25 -107 l-25 -23 0 81 0 82 -77 0 -76 0 23 25 c21 23 31 25 102 25 l78 0
0 -83z"/>
</g>
</svg>
